<svg id="svg" version="1.1" xmlns="http://www.w3.org/2000/svg" xmlns:xlink="http://www.w3.org/1999/xlink" width="400" height="2143.75" viewBox="0, 0, 400,2143.75"><g id="svgg"><path id="path0" d="M45.925 583.221 C 60.603 583.359,84.361 583.359,98.722 583.221 C 113.083 583.083,101.074 582.970,72.036 582.970 C 42.998 582.970,31.248 583.083,45.925 583.221 M295.590 583.221 C 310.267 583.359,334.025 583.359,348.386 583.221 C 362.747 583.083,350.738 582.970,321.700 582.970 C 292.662 582.970,280.912 583.083,295.590 583.221 M14.722 1750.019 C 12.204 1752.736,11.924 1756.108,13.838 1760.687 C 16.036 1765.947,18.465 1766.443,42.029 1766.443 L 62.640 1766.443 62.645 1861.521 C 62.650 1941.203,62.867 1958.049,63.986 1965.548 C 70.110 2006.586,89.244 2037.287,123.490 2061.022 C 133.550 2067.994,152.873 2076.680,162.611 2078.608 C 164.965 2079.074,170.313 2080.192,174.497 2081.091 C 185.087 2083.369,210.249 2083.358,221.029 2081.070 C 225.213 2080.182,230.626 2079.062,233.060 2078.582 C 242.317 2076.754,263.204 2067.216,273.127 2060.286 C 301.642 2040.371,319.265 2015.116,328.620 1980.761 L 331.544 1970.022 331.789 1868.233 L 332.035 1766.443 353.131 1766.443 C 376.308 1766.443,379.552 1765.836,381.361 1761.160 C 382.700 1757.699,381.766 1750.272,379.812 1748.843 C 378.012 1747.527,268.075 1747.037,266.129 1748.336 C 262.291 1750.899,262.050 1758.556,265.672 1762.897 L 268.257 1765.996 290.728 1766.276 L 313.199 1766.556 313.192 1857.551 C 313.184 1953.016,313.016 1957.786,309.078 1974.497 C 295.232 2033.240,237.470 2071.519,178.076 2061.313 C 160.760 2058.338,136.636 2047.535,127.330 2038.589 C 126.244 2037.544,125.111 2036.689,124.814 2036.689 C 124.261 2036.689,110.870 2023.170,108.053 2019.768 C 97.652 2007.204,88.491 1987.211,84.815 1969.054 C 82.858 1959.392,82.833 1958.217,82.544 1862.864 L 82.252 1766.443 103.363 1766.443 C 120.482 1766.443,124.970 1766.186,127.099 1765.086 C 132.269 1762.412,134.102 1754.481,130.584 1750.009 L 128.729 1747.651 72.823 1747.651 L 16.917 1747.651 14.722 1750.019 M2.908 2130.381 C 0.990 2130.755,0.895 2131.173,0.895 2139.212 L 0.895 2147.651 198.479 2147.651 C 350.962 2147.651,396.308 2147.406,397.136 2146.577 C 399.311 2144.402,398.475 2134.789,395.901 2132.371 L 393.592 2130.201 199.257 2130.095 C 92.373 2130.037,4.016 2130.166,2.908 2130.381 " stroke="none" fill="#64ccfc" fill-rule="evenodd"></path><path id="path1" d="M0.000 582.327 C 0.000 582.696,89.799 582.998,199.553 582.998 C 309.306 582.998,399.105 582.696,399.105 582.327 C 399.105 581.957,309.306 581.655,199.553 581.655 C 89.799 581.655,0.000 581.957,0.000 582.327 M16.512 1165.679 C 12.348 1170.172,14.264 1179.183,19.793 1181.111 C 21.561 1181.727,30.542 1182.103,43.508 1182.103 L 64.377 1182.103 64.660 1281.208 C 64.940 1379.048,64.968 1380.445,66.914 1390.604 C 69.778 1405.554,78.117 1426.565,84.787 1435.640 C 85.895 1437.146,86.801 1438.715,86.801 1439.126 C 86.801 1442.384,106.120 1463.219,116.328 1470.969 C 120.018 1473.771,123.569 1476.565,124.221 1477.180 C 124.872 1477.794,126.383 1478.543,127.579 1478.843 C 128.775 1479.143,129.754 1479.661,129.754 1479.994 C 129.754 1480.635,135.352 1483.624,144.966 1488.117 C 178.696 1503.878,231.859 1501.853,263.087 1483.617 C 263.826 1483.186,266.644 1481.541,269.351 1479.962 C 272.058 1478.384,275.352 1476.256,276.670 1475.235 C 284.336 1469.296,286.441 1467.524,291.620 1462.649 C 309.134 1446.163,321.064 1426.927,328.475 1403.226 C 333.035 1388.641,333.083 1387.475,333.473 1281.655 L 333.840 1182.103 354.706 1182.103 C 367.669 1182.103,376.649 1181.727,378.417 1181.111 C 383.701 1179.269,385.672 1171.007,382.042 1165.910 L 380.191 1163.311 324.324 1163.311 C 259.801 1163.311,264.865 1162.567,264.891 1172.036 C 264.916 1181.682,266.094 1182.103,293.043 1182.103 L 314.139 1182.103 313.887 1281.655 L 313.634 1381.208 310.732 1390.837 C 309.136 1396.133,307.830 1400.899,307.830 1401.428 C 307.830 1401.957,306.421 1405.251,304.698 1408.748 C 302.975 1412.244,301.566 1415.423,301.566 1415.813 C 301.566 1416.202,300.157 1418.723,298.434 1421.416 C 296.711 1424.109,295.302 1426.664,295.302 1427.094 C 295.302 1427.524,294.257 1428.852,292.980 1430.045 C 291.703 1431.239,290.130 1433.221,289.485 1434.452 C 288.091 1437.112,272.034 1453.127,267.562 1456.319 C 251.607 1467.704,240.975 1472.325,218.792 1477.517 C 200.425 1481.817,171.743 1478.423,154.960 1469.966 C 152.336 1468.644,149.800 1467.562,149.324 1467.562 C 148.849 1467.562,146.333 1466.201,143.734 1464.538 C 141.134 1462.875,138.134 1461.238,137.065 1460.899 C 135.997 1460.559,135.123 1459.965,135.123 1459.577 C 135.123 1459.189,132.808 1457.242,129.978 1455.249 C 113.083 1443.352,97.838 1421.804,90.256 1399.105 C 84.275 1381.198,84.139 1378.409,84.127 1273.602 L 84.116 1182.103 105.115 1182.103 C 127.977 1182.103,131.193 1181.521,133.246 1177.015 C 134.975 1173.220,134.447 1168.283,132.034 1165.679 L 129.839 1163.311 74.273 1163.311 L 18.706 1163.311 16.512 1165.679 M399.105 1356.600 C 399.105 1462.416,398.950 1548.993,398.760 1548.993 C 398.570 1548.993,397.261 1548.392,395.852 1547.657 C 392.828 1546.079,9.262 1545.574,3.801 1547.140 L 0.903 1547.971 0.671 1453.851 L 0.439 1359.732 0.220 1462.416 L 0.000 1565.101 200.000 1565.101 L 400.000 1565.101 400.000 1364.653 C 400.000 1254.407,399.799 1164.206,399.553 1164.206 C 399.306 1164.206,399.105 1250.783,399.105 1356.600 M45.478 1747.427 C 60.894 1747.564,85.861 1747.564,100.959 1747.427 C 116.058 1747.289,103.445 1747.177,72.931 1747.177 C 42.416 1747.177,30.063 1747.290,45.478 1747.427 M295.143 1747.427 C 310.559 1747.564,335.525 1747.564,350.624 1747.427 C 365.723 1747.289,353.110 1747.177,322.595 1747.177 C 292.081 1747.177,279.727 1747.290,295.143 1747.427 M0.323 2139.597 C 0.323 2144.273,0.473 2146.186,0.658 2143.848 C 0.842 2141.510,0.842 2137.685,0.658 2135.347 C 0.473 2133.009,0.323 2134.922,0.323 2139.597 " stroke="none" fill="#ececec" fill-rule="evenodd"></path><path id="path2" d="M14.988 585.554 C 12.888 587.912,12.250 591.601,13.769 592.604 C 14.462 593.061,14.418 593.265,13.624 593.275 C 11.981 593.295,14.654 598.252,16.738 599.052 C 17.614 599.388,28.300 599.627,40.485 599.583 L 62.640 599.503 62.640 692.966 C 62.640 766.935,62.873 786.508,63.758 786.810 C 64.627 787.107,64.650 787.809,63.861 789.950 C 63.174 791.816,63.107 794.103,63.655 797.025 C 64.100 799.399,64.633 802.550,64.840 804.027 C 65.577 809.274,67.295 817.463,67.844 818.345 C 68.150 818.837,68.430 820.246,68.464 821.477 C 68.499 822.707,69.060 824.922,69.710 826.398 C 70.360 827.875,71.699 831.096,72.685 833.557 C 73.670 836.018,74.908 838.837,75.434 839.821 C 77.131 842.992,78.614 846.030,79.585 848.322 C 80.106 849.553,81.037 851.341,81.653 852.296 C 84.294 856.386,89.205 863.501,91.275 866.234 C 94.797 870.884,110.522 886.801,111.594 886.801 C 112.125 886.801,112.792 887.405,113.075 888.143 C 113.359 888.881,114.207 889.485,114.961 889.485 C 115.714 889.485,116.331 889.860,116.331 890.317 C 116.331 891.218,123.980 896.644,125.250 896.644 C 125.676 896.644,126.160 896.946,126.324 897.315 C 127.250 899.399,149.988 910.162,156.152 911.435 C 159.628 912.152,174.088 915.524,176.957 916.286 C 178.855 916.790,179.866 916.738,179.866 916.138 C 179.866 915.529,180.245 915.515,180.984 916.096 C 182.673 917.422,187.777 918.181,188.385 917.197 C 189.093 916.052,194.183 916.077,194.183 917.226 C 194.183 917.718,195.391 918.121,196.868 918.121 C 198.345 918.121,199.553 917.718,199.553 917.226 C 199.553 916.077,204.643 916.052,205.351 917.197 C 205.959 918.181,211.063 917.422,212.752 916.096 C 213.516 915.495,213.870 915.565,213.870 916.317 C 213.870 917.011,214.449 917.182,215.436 916.781 C 216.298 916.431,219.418 915.604,222.371 914.942 C 237.106 911.643,239.704 910.970,243.848 909.381 C 250.792 906.719,267.562 898.247,267.562 897.401 C 267.562 896.985,267.952 896.644,268.430 896.644 C 269.652 896.644,277.405 891.085,277.405 890.208 C 277.405 889.811,277.990 889.485,278.706 889.485 C 280.258 889.485,298.219 871.953,302.541 866.219 C 304.211 864.004,305.888 861.790,306.269 861.298 C 308.451 858.475,311.928 852.716,313.563 849.217 C 314.598 847.002,316.373 843.694,317.507 841.866 C 318.642 840.038,319.918 837.421,320.344 836.050 C 320.770 834.679,321.995 831.342,323.067 828.635 C 324.138 825.928,325.097 822.694,325.197 821.448 C 325.298 820.202,325.621 818.793,325.915 818.316 C 326.445 817.456,328.172 809.179,328.896 804.027 C 329.103 802.550,329.640 799.379,330.090 796.980 C 330.575 794.391,330.581 791.480,330.105 789.821 C 329.592 788.031,329.626 786.918,330.200 786.727 C 330.791 786.530,331.096 754.586,331.096 692.966 L 331.096 599.503 353.391 599.583 C 370.330 599.644,376.136 599.382,377.562 598.492 C 379.628 597.201,380.739 594.702,379.871 593.297 C 379.564 592.800,379.689 592.394,380.149 592.394 C 381.785 592.394,380.950 587.902,378.902 585.692 L 376.819 583.445 321.967 583.459 C 291.798 583.466,266.656 583.768,266.095 584.130 C 263.042 586.100,263.092 596.062,266.167 598.615 C 267.061 599.357,274.077 599.638,290.338 599.583 L 313.249 599.507 312.958 697.740 C 312.798 751.768,312.357 797.383,311.978 799.105 C 311.600 800.828,311.167 803.043,311.016 804.027 C 310.866 805.011,310.630 806.018,310.492 806.264 C 310.355 806.510,310.148 807.114,310.034 807.606 C 309.920 808.098,309.749 808.702,309.654 808.949 C 309.560 809.195,309.340 810.000,309.166 810.738 C 307.671 817.065,305.658 823.485,304.116 826.846 C 299.337 837.260,297.642 840.750,297.163 841.163 C 296.878 841.409,295.886 843.020,294.959 844.743 C 294.032 846.465,292.789 848.277,292.197 848.770 C 291.605 849.262,290.589 850.671,289.940 851.902 C 288.517 854.598,287.378 855.872,276.690 866.721 C 272.114 871.367,267.886 875.179,267.294 875.193 C 266.703 875.206,265.045 876.414,263.609 877.877 C 262.174 879.340,260.462 880.537,259.806 880.537 C 259.150 880.537,258.613 880.851,258.613 881.236 C 258.613 881.620,257.506 882.426,256.152 883.027 C 254.799 883.627,252.483 884.788,251.007 885.605 C 249.530 886.422,247.617 887.429,246.756 887.841 C 243.895 889.210,242.085 890.111,239.374 891.513 C 237.897 892.276,235.078 893.191,233.110 893.547 C 231.141 893.902,229.128 894.493,228.635 894.861 C 227.195 895.935,218.080 898.376,217.303 897.896 C 216.912 897.654,215.726 897.920,214.668 898.486 C 212.380 899.710,187.420 900.168,182.103 899.083 C 180.134 898.681,177.517 898.196,176.286 898.004 C 172.306 897.385,166.091 895.675,165.136 894.937 C 164.624 894.542,162.318 893.758,160.011 893.195 C 157.704 892.633,153.487 890.964,150.640 889.487 C 147.793 888.009,145.091 886.801,144.636 886.801 C 144.182 886.801,141.686 885.391,139.091 883.669 C 136.496 881.946,134.038 880.537,133.629 880.536 C 133.220 880.536,131.303 879.126,129.368 877.404 C 127.433 875.682,125.565 874.273,125.218 874.273 C 124.871 874.273,120.711 870.347,115.974 865.548 C 104.643 854.071,105.029 854.508,103.741 851.678 C 103.125 850.324,102.291 849.217,101.888 849.217 C 101.485 849.217,100.287 847.506,99.227 845.414 C 98.166 843.322,97.026 841.409,96.693 841.163 C 96.360 840.917,94.755 837.897,93.126 834.452 C 91.497 831.007,89.660 827.181,89.044 825.951 C 88.428 824.720,87.419 821.499,86.802 818.792 C 86.185 816.085,85.464 813.266,85.200 812.528 C 84.935 811.790,84.633 810.884,84.529 810.515 C 84.425 810.145,84.256 809.743,84.154 809.620 C 84.051 809.497,83.836 808.591,83.675 807.606 C 83.514 806.622,83.130 804.810,82.823 803.579 C 82.515 802.349,81.995 800.134,81.666 798.658 C 81.338 797.181,80.938 751.769,80.778 697.742 L 80.487 599.510 103.917 599.583 C 122.298 599.641,127.509 599.404,128.100 598.486 C 131.298 593.513,130.513 584.994,126.763 583.988 C 125.701 583.703,100.540 583.464,70.850 583.457 L 16.867 583.445 14.988 585.554 M0.000 975.391 L 0.000 983.445 196.729 983.445 L 393.459 983.445 395.163 981.562 C 397.506 978.973,397.506 971.810,395.163 969.221 L 393.459 967.338 196.729 967.338 L 0.000 967.338 0.000 975.391 " stroke="none" fill="#04abfb" fill-rule="evenodd"></path><path id="path3" d="M31.148 600.221 C 37.205 600.376,46.869 600.376,52.624 600.220 C 58.379 600.065,53.423 599.938,41.611 599.938 C 29.799 599.939,25.090 600.066,31.148 600.221 M91.103 600.221 C 97.160 600.376,106.825 600.376,112.579 600.220 C 118.334 600.065,113.378 599.938,101.566 599.938 C 89.754 599.939,85.045 600.066,91.103 600.221 M281.707 600.221 C 287.764 600.376,297.429 600.376,303.183 600.220 C 308.938 600.065,303.982 599.938,292.170 599.938 C 280.358 599.939,275.649 600.066,281.707 600.221 M341.662 600.221 C 347.719 600.376,357.384 600.376,363.139 600.220 C 368.893 600.065,363.937 599.938,352.125 599.938 C 340.313 599.939,335.605 600.066,341.662 600.221 M62.654 789.485 C 62.664 791.692,62.876 792.070,63.535 791.051 C 64.671 789.293,64.671 786.577,63.535 786.577 C 63.043 786.577,62.646 787.886,62.654 789.485 M329.863 789.038 C 330.706 792.551,331.096 792.669,331.096 789.411 C 331.096 787.852,330.686 786.577,330.184 786.577 C 329.643 786.577,329.512 787.577,329.863 789.038 M188.367 917.226 C 188.038 917.758,189.103 918.121,190.999 918.121 C 192.750 918.121,194.183 917.718,194.183 917.226 C 194.183 916.734,192.999 916.331,191.552 916.331 C 190.104 916.331,188.671 916.734,188.367 917.226 M199.553 917.226 C 199.553 917.718,200.986 918.121,202.737 918.121 C 204.633 918.121,205.698 917.758,205.369 917.226 C 205.065 916.734,203.632 916.331,202.184 916.331 C 200.737 916.331,199.553 916.734,199.553 917.226 M100.000 967.114 C 153.277 967.242,240.459 967.242,293.736 967.114 C 347.013 966.987,303.423 966.882,196.868 966.882 C 90.313 966.882,46.723 966.987,100.000 967.114 " stroke="none" fill="#0494dc" fill-rule="evenodd"></path><path id="path4" d="M17.887 2.908 C 14.670 8.185,16.627 15.165,21.834 16.989 C 23.304 17.503,33.484 17.897,45.324 17.897 L 66.219 17.897 66.248 112.528 C 66.280 220.696,66.845 231.193,73.279 243.215 C 73.825 244.236,74.273 245.733,74.273 246.540 C 74.273 247.830,82.248 264.698,85.906 271.144 C 92.842 283.366,121.017 312.304,125.981 312.304 C 126.389 312.304,128.055 313.288,129.684 314.490 C 144.991 325.783,175.854 334.617,200.000 334.617 C 224.146 334.617,255.009 325.783,270.316 314.490 C 271.945 313.288,273.611 312.304,274.019 312.304 C 278.983 312.304,307.158 283.366,314.094 271.144 C 317.752 264.698,325.727 247.830,325.727 246.540 C 325.727 245.733,326.175 244.236,326.721 243.215 C 333.155 231.193,333.720 220.696,333.752 112.528 L 333.781 17.897 354.676 17.897 C 366.516 17.897,376.696 17.503,378.166 16.989 C 383.373 15.165,385.330 8.185,382.113 2.908 L 380.340 0.000 325.813 0.000 C 295.824 0.000,270.635 0.250,269.839 0.556 C 266.200 1.952,264.703 9.170,267.247 13.053 C 270.208 17.572,272.060 17.897,294.810 17.897 L 315.884 17.897 315.836 110.291 C 315.800 179.661,315.498 205.472,314.621 213.870 C 311.851 240.417,298.330 266.968,278.300 285.198 C 270.312 292.468,269.081 293.512,268.494 293.512 C 268.167 293.512,267.083 294.273,266.085 295.203 C 254.150 306.321,223.266 316.077,200.000 316.077 C 176.734 316.077,145.850 306.321,133.915 295.203 C 132.917 294.273,131.803 293.512,131.439 293.512 C 131.075 293.512,130.244 292.982,129.594 292.335 C 128.944 291.687,125.965 288.969,122.976 286.295 C 107.388 272.350,96.058 254.696,89.418 234.004 C 84.452 218.530,84.217 212.999,84.164 110.291 L 84.116 17.897 105.190 17.897 C 127.940 17.897,129.792 17.572,132.753 13.053 C 135.297 9.170,133.800 1.952,130.161 0.556 C 129.365 0.250,104.176 0.000,74.187 0.000 L 19.660 0.000 17.887 2.908 M5.369 383.627 C -1.026 385.979,-2.414 396.860,3.297 399.866 C 6.108 401.346,393.892 401.346,396.703 399.866 C 400.971 397.620,401.551 389.241,397.691 385.615 L 395.382 383.445 201.047 383.289 C 94.162 383.203,6.107 383.355,5.369 383.627 " stroke="none" fill="#040404" fill-rule="evenodd"></path></g></svg>